HIERARCHY
ROOT Hips
{
  OFFSET 84.1119 83.2092 16.8978
  CHANNELS 6 Xposition Yposition Zposition Zrotation Xrotation Yrotation
  JOINT spine
  {
    OFFSET 0 6.84637 0.3937
    CHANNELS 3 Zrotation Xrotation Yrotation
    JOINT spine1
    {
      OFFSET 0 9.49621 0
      CHANNELS 3 Zrotation Xrotation Yrotation
      JOINT spine2
      {
        OFFSET 0 9.09909 0
        CHANNELS 3 Zrotation Xrotation Yrotation
        JOINT Neck
        {
          OFFSET 0 23.3612 1.11378
          CHANNELS 3 Zrotation Xrotation Yrotation
          JOINT Head
          {
            OFFSET 0 7.05802 0
            CHANNELS 3 Zrotation Xrotation Yrotation
            End Site
            {
              OFFSET 0 17.0844 -5.63419
            }
          }
        }
        JOINT RightShoulder
        {
          OFFSET -3.83136 9.82631 -0.533491
          CHANNELS 3 Zrotation Xrotation Yrotation
          JOINT RightArm
          {
            OFFSET 0 12.8881 0
            CHANNELS 3 Zrotation Xrotation Yrotation
            JOINT RightArmRoll
            {
              OFFSET 0 6.50617 0
              CHANNELS 3 Zrotation Xrotation Yrotation
              JOINT RightForeArm
              {
                OFFSET 0 18.9501 0
                CHANNELS 3 Zrotation Xrotation Yrotation
                JOINT RightForeArmRoll
                {
                  OFFSET 0 7.30092 0
                  CHANNELS 3 Zrotation Xrotation Yrotation
                  JOINT RightHand
                  {
                    OFFSET 0 14.6514 0
                    CHANNELS 3 Zrotation Xrotation Yrotation
                    End Site
                    {
                      OFFSET 0 0 0
                    }
                  }
                }
              }
            }
          }
        }
        JOINT LeftShoulder
        {
          OFFSET 3.83136 9.82631 -0.533491
          CHANNELS 3 Zrotation Xrotation Yrotation
          JOINT LeftArm
          {
            OFFSET 0 12.8881 0
            CHANNELS 3 Zrotation Xrotation Yrotation
            JOINT LeftArmRoll
            {
              OFFSET 0 6.50617 0
              CHANNELS 3 Zrotation Xrotation Yrotation
              JOINT LeftForeArm
              {
                OFFSET 0 18.9501 0
                CHANNELS 3 Zrotation Xrotation Yrotation
                JOINT LeftForeArmRoll
                {
                  OFFSET 0 7.30092 0
                  CHANNELS 3 Zrotation Xrotation Yrotation
                  JOINT LeftHand
                  {
                    OFFSET 0 14.6514 0
                    CHANNELS 3 Zrotation Xrotation Yrotation
                    End Site
                    {
                      OFFSET 0 0 0
                    }
                  }
                }
              }
            }
          }
        }
      }
    }
  }
  JOINT RightUpLeg
  {
    OFFSET -6.06837 -1.11278 -0.933477
    CHANNELS 3 Zrotation Xrotation Yrotation
    JOINT RightUpLegRoll
    {
      OFFSET 0 17.1796 0
      CHANNELS 3 Zrotation Xrotation Yrotation
      JOINT RightLeg
      {
        OFFSET 0 -21.2743 0
        CHANNELS 3 Zrotation Xrotation Yrotation
        JOINT RightLegRoll
        {
          OFFSET 0 21.3439 0
          CHANNELS 3 Zrotation Xrotation Yrotation
          JOINT RightFoot
          {
            OFFSET 0 17.7652 0
            CHANNELS 3 Zrotation Xrotation Yrotation
            JOINT RightToeBase
            {
              OFFSET 0 14.8508 0
              CHANNELS 3 Zrotation Xrotation Yrotation
              End Site
              {
                OFFSET 0.0062947 7.19214 -0.829004
              }
            }
          }
        }
      }
    }
  }
  JOINT LeftUpLeg
  {
    OFFSET 6.06837 -1.11278 -0.933477
    CHANNELS 3 Zrotation Xrotation Yrotation
    JOINT LeftUpLegRoll
    {
      OFFSET 0 17.1797 0
      CHANNELS 3 Zrotation Xrotation Yrotation
      JOINT LeftLeg
      {
        OFFSET 0 21.2742 0
        CHANNELS 3 Zrotation Xrotation Yrotation
        JOINT LeftLegRoll
        {
          OFFSET 0 21.5412 0
          CHANNELS 3 Zrotation Xrotation Yrotation
          JOINT LeftFoot
          {
            OFFSET 0 17.5679 0
            CHANNELS 3 Zrotation Xrotation Yrotation
            JOINT LeftToeBase
            {
              OFFSET 0 14.8508 0
              CHANNELS 3 Zrotation Xrotation Yrotation
              End Site
              {
                OFFSET -0.0282102 7.19213 -0.829005
              }
            }
          }
        }
      }
    }
  }
}
MOTION
Frames: 10
Frame Time: 0.00208333
87.3393 85.4275 14.8016 -11.0686 -0.0512433 55.2364 -0.947217 -3.86667 0.179595 -1.87915 -3.73463 0.41882 -1.88276 -2.09008 0.450074 11.7111 3.14225 3.41185 -15.3793 11.9589 6.30502 45.4447 -22.4814 -16.548 33.7752 44.3178 94.1828 -4.59575e-006 -2.85153e-006 -2.24685e-005 139.976 79.5265 -124.827 8.56279e-006 -1.08558e-005 -3 8.03014 -4.95095 0.697562 -41.9142 -14.293 9.89542 -92.645 -8.77105 -47.3298 -2.8245e-007 6.60995e-007 1.53717e-005 4.90337 -0.0349526 -0.634991 5.1259e-007 -2.67911e-006 3.02296 -8.03127 -4.95065 -0.697039 174.784 -10.4863 2.16879 180 7.01397e-015 178.4 -179.325 17.918 179.145 4.22802e-006 -2.08559e-006 0.106905 -17.1585 65.6845 17.7874 7.91983 29.8043 2.42784 -179.608 41.6306 7.78483 4.54188e-006 -4.6773e-006 -1.06739 6.83584 -40.6376 4.44296 3.05901e-007 -6.6868e-007 -0.852388 19.8848 69.039 -20.4576 -8.13649 25.2327 3.48774 
87.3054 85.4451 14.8181 -11.1729 -0.121386 55.6051 -0.954748 -3.85385 0.19262 -1.89346 -3.70923 0.445581 -1.89739 -2.06469 0.477062 11.0835 2.99314 3.3684 -14.67 12.0148 6.10714 45.0904 -22.2617 -16.4074 33.8931 44.8853 93.2223 -4.59575e-006 -2.85153e-006 -2.24685e-005 138.837 79.9926 -124.167 8.56279e-006 -1.08558e-005 -3 8.03014 -4.95095 0.697562 -42.3709 -14.4194 9.97541 -92.2634 -8.7609 -47.1744 -2.8245e-007 6.60994e-007 1.53717e-005 4.73594 -0.0335674 -0.615207 5.1259e-007 -2.67911e-006 3.02371 -8.03127 -4.95065 -0.697039 175 -10.5533 2.09208 180 7.01399e-015 178.403 -179.368 17.7926 179.159 4.22802e-006 -2.08559e-006 0.104951 -17.1438 65.6681 17.7764 7.92169 29.7798 2.41876 -179.668 41.7461 7.90764 4.54188e-006 -4.6773e-006 -1.06466 6.92913 -40.6383 4.48279 3.05901e-007 -6.6868e-007 -0.851103 19.874 69.0298 -20.4491 -8.13649 25.2327 3.48774 
87.306 85.4286 14.8587 -11.2737 -0.191001 55.9627 -0.961693 -3.84012 0.205043 -1.90664 -3.68201 0.471124 -1.91088 -2.03748 0.502814 10.4158 2.86057 3.33231 -13.9156 12.0455 5.90729 44.7083 -22.027 -16.2558 34.0033 45.4783 92.3263 -4.59575e-006 -2.85153e-006 -2.24685e-005 137.212 80.5216 -123.024 8.56279e-006 -1.08558e-005 -3 8.03014 -4.95095 0.697562 -42.8454 -14.5482 10.0539 -91.869 -8.7596 -47.0147 -2.8245e-007 6.60994e-007 1.53717e-005 4.56148 -0.0321866 -0.594163 5.1259e-007 -2.67911e-006 3.02479 -8.03127 -4.95065 -0.697039 175.212 -10.6181 2.01382 180 7.014e-015 178.407 -179.406 17.6673 179.172 4.22802e-006 -2.08559e-006 0.102827 -17.1298 65.6529 17.7662 7.92311 29.7581 2.41258 -179.72 41.8602 8.01985 4.54188e-006 -4.6773e-006 -1.06211 7.01757 -40.6435 4.5209 3.05901e-007 -6.6868e-007 -0.85039 19.8654 69.0234 -20.4431 -8.13649 25.2327 3.48774 
87.2828 85.4264 14.9035 -11.3686 -0.26062 56.3107 -0.968085 -3.82457 0.216644 -1.91878 -3.65112 0.495022 -1.92332 -2.00661 0.526904 9.70154 2.73496 3.30618 -13.1111 12.0591 5.70655 44.2815 -21.781 -16.1022 34.13 46.1199 91.4501 -4.59575e-006 -2.85153e-006 -2.24685e-005 135.156 81.105 -121.462 8.56279e-006 -1.08558e-005 -3 8.03014 -4.95095 0.697562 -43.3402 -14.682 10.1334 -91.4579 -8.76269 -46.8432 -2.8245e-007 6.60995e-007 1.53717e-005 4.37562 -0.030808 -0.571483 5.1259e-007 -2.67911e-006 3.02641 -8.03127 -4.95065 -0.697039 175.421 -10.6835 1.93385 180 7.01401e-015 178.411 -179.438 17.5404 179.184 4.22802e-006 -2.08559e-006 0.100413 -17.116 65.6379 17.7562 7.92421 29.7384 2.40819 -179.766 41.9695 8.12336 4.54188e-006 -4.6773e-006 -1.05973 7.1016 -40.6517 4.55739 3.05901e-007 -6.6868e-007 -0.849956 19.8578 69.0186 -20.4385 -8.13649 25.2327 3.48774 
87.2785 85.4177 14.9314 -11.4589 -0.330245 56.6495 -0.973984 -3.80748 0.227622 -1.92998 -3.61715 0.51767 -1.9348 -1.97265 0.549731 8.94797 2.61583 3.28845 -12.2643 12.0571 5.50518 43.8188 -21.5229 -15.9439 34.2712 46.7987 90.5896 -4.59575e-006 -2.85153e-006 -2.24685e-005 132.545 81.7338 -119.355 8.56279e-006 -1.08558e-005 -3 8.03014 -4.95095 0.697562 -43.852 -14.8201 10.2136 -91.0331 -8.76941 -46.6615 -2.8245e-007 6.60995e-007 1.53717e-005 4.18007 -0.029421 -0.54739 5.1259e-007 -2.67911e-006 3.02848 -8.03127 -4.95065 -0.697039 175.627 -10.7487 1.85218 180 7.01402e-015 178.414 -179.466 17.4119 179.195 4.22802e-006 -2.08559e-006 0.0977315 -17.1025 65.6232 17.7464 7.92504 29.7203 2.40544 -179.807 42.075 8.21859 4.54188e-006 -4.6773e-006 -1.05748 7.18161 -40.6626 4.59238 3.05901e-007 -6.6868e-007 -0.849773 19.8511 69.015 -20.435 -8.13649 25.2327 3.48774 
87.2489 85.4222 14.9705 -11.5457 -0.399876 56.9797 -0.979452 -3.78915 0.238175 -1.94037 -3.58069 0.539465 -1.94546 -1.9362 0.571691 8.16242 2.50271 3.27756 -11.3827 12.0413 5.30343 43.3291 -21.252 -15.7784 34.4235 47.5031 89.7421 -4.59575e-006 -2.85153e-006 -2.24685e-005 129.201 82.3961 -116.523 8.56279e-006 -1.08558e-005 -3 8.03014 -4.95095 0.697562 -44.3775 -14.9619 10.2943 -90.5979 -8.77898 -46.4714 -2.8245e-007 6.60995e-007 1.53717e-005 3.97652 -0.0280152 -0.52211 5.1259e-007 -2.67911e-006 3.03094 -8.03127 -4.95065 -0.697039 175.83 -10.813 1.76881 180 7.01404e-015 178.418 -179.49 17.2817 179.205 4.22802e-006 -2.08559e-006 0.0948054 -17.0892 65.6086 17.7367 7.92563 29.7038 2.40419 -179.841 42.1781 8.30598 4.54188e-006 -4.6773e-006 -1.05534 7.258 -40.6756 4.62602 3.05901e-007 -6.6868e-007 -0.849813 19.8452 69.0126 -20.4324 -8.13649 25.2327 3.48774 
87.2399 85.4125 15.0045 -11.6302 -0.469514 57.3017 -0.984549 -3.76986 0.248502 -1.95004 -3.54232 0.560803 -1.95541 -1.89784 0.593182 7.35217 2.39514 3.27196 -10.4738 12.0134 5.10153 42.8212 -20.9675 -15.6033 34.5828 48.2214 88.9067 -4.59575e-006 -2.85153e-006 -2.24685e-005 124.872 83.0752 -112.712 8.56279e-006 -1.08558e-005 -3 8.03014 -4.95095 0.697562 -44.9132 -15.1067 10.3753 -90.1554 -8.79065 -46.2744 -2.8245e-007 6.60995e-007 1.53717e-005 3.76667 -0.02658 -0.495867 5.1259e-007 -2.67911e-006 3.03373 -8.03127 -4.95065 -0.697039 176.031 -10.8755 1.68374 180 7.01405e-015 178.423 -179.51 17.1501 179.215 4.22802e-006 -2.08559e-006 0.0916569 -17.0759 65.5939 17.7271 7.92599 29.6887 2.40429 -179.87 42.2797 8.38598 4.54188e-006 -4.6773e-006 -1.05326 7.33116 -40.6906 4.65843 3.05901e-007 -6.6868e-007 -0.850047 19.8399 69.0111 -20.4306 -8.13649 25.2327 3.48774 
87.2334 85.3837 15.0307 -11.7134 -0.539154 57.6162 -0.989336 -3.74991 0.2588 -1.95911 -3.50262 0.582079 -1.96475 -1.85815 0.614602 6.52447 2.29263 3.27009 -9.54521 11.9752 4.89974 42.3038 -20.6687 -15.416 34.7438 48.9419 88.0838 -4.59575e-006 -2.85153e-006 -2.24685e-005 119.208 83.747 -107.57 8.56279e-006 -1.08558e-005 -3 8.03014 -4.95095 0.697562 -45.456 -15.2538 10.4564 -89.7088 -8.80365 -46.0724 -2.8245e-007 6.60995e-007 1.53717e-005 3.55221 -0.025105 -0.468886 5.1259e-007 -2.67911e-006 3.03679 -8.03127 -4.95065 -0.697039 176.231 -10.9354 1.597 180 7.01407e-015 178.427 -179.527 17.017 179.224 4.22802e-006 -2.08559e-006 0.0883088 -17.0627 65.5791 17.7173 7.92616 29.6749 2.40559 -179.893 42.3813 8.45905 4.54188e-006 -4.6773e-006 -1.05124 7.40147 -40.7071 4.68974 3.05901e-007 -6.6868e-007 -0.850447 19.8351 69.0103 -20.4294 -8.13649 25.2327 3.48774 
87.2161 85.382 15.0702 -11.7966 -0.608793 57.9236 -0.993875 -3.72958 0.26927 -1.96768 -3.46217 0.60369 -1.9736 -1.81771 0.636349 5.68657 2.19471 3.2704 -8.60444 11.9284 4.69827 41.7856 -20.3547 -15.2142 34.9 49.6527 87.2753 -4.59575e-006 -2.85153e-006 -2.24685e-005 111.755 84.3752 -100.64 8.56279e-006 -1.08558e-005 -3 8.03014 -4.95095 0.697562 -46.0025 -15.4027 10.5374 -89.2612 -8.81722 -45.8671 -2.8245e-007 6.60995e-007 1.53717e-005 3.33484 -0.0235795 -0.44139 5.1259e-007 -2.67911e-006 3.04003 -8.03127 -4.95065 -0.697039 176.429 -10.992 1.50857 180 7.01408e-015 178.432 -179.541 16.8825 179.233 4.22802e-006 -2.08559e-006 0.0847833 -17.0494 65.5641 17.7075 7.92617 29.6623 2.40795 -179.91 42.4837 8.52567 4.54188e-006 -4.6773e-006 -1.04922 7.46933 -40.7247 4.7201 3.05901e-007 -6.6868e-007 -0.850984 19.8306 69.0101 -20.4288 -8.13649 25.2327 3.48774 
87.1782 85.3909 15.0962 -11.8809 -0.678423 58.2245 -0.998227 -3.70918 0.280109 -1.97587 -3.42157 0.626031 -1.98208 -1.77712 0.658819 4.84573 2.10091 3.27132 -7.65897 11.8748 4.49737 41.2749 -20.0247 -14.9955 35.0438 50.3422 86.4848 -4.59575e-006 -2.85153e-006 -2.24685e-005 102.027 84.9064 -91.4353 8.56279e-006 -1.08558e-005 -3 8.03014 -4.95095 0.697562 -46.5494 -15.5526 10.6179 -88.8158 -8.83059 -45.6601 -2.8245e-007 6.60995e-007 1.53717e-005 3.11626 -0.0219931 -0.413605 5.1259e-007 -2.67911e-006 3.0434 -8.03127 -4.95065 -0.697039 176.627 -11.0445 1.41847 180 7.0141e-015 178.436 -179.553 16.7466 179.242 4.22802e-006 -2.08559e-006 0.081103 -17.036 65.5488 17.6974 7.92605 29.6506 2.41122 -179.921 42.5883 8.58631 4.54188e-006 -4.6773e-006 -1.04718 7.53511 -40.7431 4.74962 3.059e-007 -6.6868e-007 -0.851632 19.8264 69.0102 -20.4284 -8.13649 25.2327 3.48774 
